# xmcd
#
# Track frame offsets:
# 150
# 13739
# 26480
# 41275
# 56965
# 73021
# 87324
# 103762
# 115492
# 130012
# 143758
# 155698
# 170530
# 183855
#
# Disc length: 2592 seconds
#
#
# Revision: 0
# Processed by: cddbd v1.5PL3 Copyright (c) Steve Scherf et al.
# Submitted via: FreeRIP 2.70 
#
DISCID=bf0a1e0e
DTITLE=Varios - Encontro Sertanejo
DYEAR=2004
DGENRE=Country
TTITLE0=Mulher Chorona
TTITLE1=Tô Doidão
TTITLE2=Telefone Mudo
TTITLE3=Aguenta Peão
TTITLE4=Nóis é Caubói (Nóis é xiki no úrtimo)
TTITLE5=Se a Casa Cair (Ao Vivo)
TTITLE6=Casa Cheia
TTITLE7=Tá Liberado
TTITLE8=Denguinho (Ao Vivo)
TTITLE9=Nóis só que vira os zóio
TTITLE10=Aqui pra Ela
TTITLE11=Tchaca Tchaca na Butchaca
TTITLE12=Doidão por Você
TTITLE13=Pé de Bode
EXTD=Teodoro and Sampaio\nRio Negro and Solimões\nBruno and Marrone\nMilionário and José Rico \nCezar and Paulinho
EXTT0=Teodoro and Sampaio
EXTT1=Rio Negro and Solimões
EXTT2=Bruno and Marrone
EXTT3=Milionário and José Rico
EXTT4=Cezar and Paulinho
EXTT5=Teodoro and Sampaio
EXTT6=Rio Negro and Solimões
EXTT7=Bruno and Marrone
EXTT8=Milionário and José Rico
EXTT9=Cezar and Paulinho
EXTT10=Teodoro and Sampaio
EXTT11=Cezar and Paulinho
EXTT12=Teodoro and Sampaio
EXTT13=Cezar and Paulinho
PLAYORDER=
